<svg class="main-svg" xmlns="http://www.w3.org/2000/svg" xmlns:xlink="http://www.w3.org/1999/xlink" width="700" height="400" style="" viewBox="0 0 700 400"><rect x="0" y="0" width="700" height="400" style="fill: rgb(0, 0, 0); fill-opacity: 0;"/><defs id="defs-e6f109"><g class="clips"><clipPath id="clipe6f109xyplot" class="plotclip"><rect width="580" height="230"/></clipPath><clipPath class="axesclip" id="clipe6f109x"><rect x="60" y="0" width="580" height="400"/></clipPath><clipPath class="axesclip" id="clipe6f109y"><rect x="0" y="60" width="700" height="230"/></clipPath><clipPath class="axesclip" id="clipe6f109xy"><rect x="60" y="60" width="580" height="230"/></clipPath></g><g class="gradients"/><g class="patterns"/></defs><g class="bglayer"><rect class="bg" x="60" y="60" width="580" height="230" style="fill: rgb(0, 0, 0); fill-opacity: 0; stroke-width: 0;"/></g><g class="layer-below"><g class="imagelayer"/><g class="shapelayer"/></g><g class="cartesianlayer"><g class="subplot xy"><g class="layer-subplot"><g class="shapelayer"/><g class="imagelayer"/></g><g class="minor-gridlayer"><g class="x"/><g class="y"/></g><g class="gridlayer"><g class="x"/><g class="y"/></g><g class="zerolinelayer"/><g class="layer-between"><g class="shapelayer"/><g class="imagelayer"/></g><path class="xlines-below"/><path class="ylines-below"/><g class="overlines-below"/><g class="xaxislayer-below"/><g class="yaxislayer-below"/><g class="overaxes-below"/><g class="overplot"><g class="xy" transform="translate(60,60)" clip-path="url(#clipe6f109xyplot)"><g class="scatterlayer mlayer"><g class="trace scatter trace6e3a66" style="stroke-miterlimit: 2; opacity: 1;"><g class="fills"/><g class="errorbars"/><g class="lines"><path class="js-line" d="M0,218.5L580,218.5" style="vector-effect: none; fill: none; stroke: rgb(0, 0, 0); stroke-opacity: 1; stroke-width: 2px; opacity: 1;"/></g><g class="points"/><g class="text"/></g><g class="trace scatter trace07d4b5" style="stroke-miterlimit: 2; opacity: 1;"><g class="fills"/><g class="errorbars"/><g class="lines"><path class="js-line" d="M0,11.5L145,59.76L246.35,76.47L290,81.9L391.35,90.05L435,90.81L580,91.08" style="vector-effect: none; fill: none; stroke: rgb(0, 0, 0); stroke-opacity: 1; stroke-dasharray: 9px, 9px; stroke-width: 2px; opacity: 1;"/></g><g class="points"/><g class="text"/></g><g class="trace scatter tracee1a62b" style="stroke-miterlimit: 2; opacity: 1;"><g class="fills"><g><path class="js-fill" d="M0,11.5L145,59.76L246.35,76.47L290,81.9L391.35,90.05L435,90.81L580,91.08L580,218.5L435,218.5L0,218.5Z" style="fill: rgb(139, 196, 59); fill-opacity: 0.25; stroke-width: 0;"/></g></g><g class="errorbars"/><g class="lines"><path class="js-line" d="M0,11.5L145,59.76L246.35,76.47L290,81.9L391.35,90.05L435,90.81L580,91.08L580,218.5L435,218.5L0,218.5" style="vector-effect: none; fill: none; stroke: rgb(0, 204, 150); stroke-opacity: 1; stroke-width: 0px; opacity: 1;"/></g><g class="points"/><g class="text"/></g><g class="trace scatter trace8a8b99" style="stroke-miterlimit: 2; opacity: 1;"><g class="fills"/><g class="errorbars"/><g class="lines"><path class="js-line" d="M0,11.68L145,57.51L246.35,79.16L290,84.54L391.35,92.97L435,95.84L580,95.44" style="vector-effect: none; fill: none; stroke: rgb(0, 0, 0); stroke-opacity: 1; stroke-dasharray: 3px, 3px; stroke-width: 2px; opacity: 1;"/></g><g class="points"/><g class="text"/></g><g class="trace scatter trace24c41b" style="stroke-miterlimit: 2; opacity: 1;"><g class="fills"><g><path class="js-fill" d="M0,11.68L145,57.51L246.35,79.16L290,84.54L391.35,92.97L435,95.84L580,95.44L580,218.5L435,218.5L0,218.5Z" style="fill: rgb(139, 196, 59); fill-opacity: 0.25; stroke-width: 0;"/></g></g><g class="errorbars"/><g class="lines"><path class="js-line" d="M0,11.68L145,57.51L246.35,79.16L290,84.54L391.35,92.97L435,95.84L580,95.44L580,218.5L435,218.5L0,218.5" style="vector-effect: none; fill: none; stroke: rgb(255, 161, 90); stroke-opacity: 1; stroke-width: 0px; opacity: 1;"/></g><g class="points"/><g class="text"/></g><g class="trace scatter trace1c1e24" style="stroke-miterlimit: 2; opacity: 1;"><g class="fills"/><g class="errorbars"/><g class="lines"><path class="js-line" d="M0,53.69L145,133.94L246.35,172.35L290,178.22L391.35,182.63L435,182.43L580,183.15" style="vector-effect: none; fill: none; stroke: rgb(0, 0, 0); stroke-opacity: 1; stroke-dasharray: 9px, 3px, 3px, 3px; stroke-width: 2px; opacity: 1;"/></g><g class="points"/><g class="text"/></g><g class="trace scatter trace5bf8ea" style="stroke-miterlimit: 2; opacity: 1;"><g class="fills"><g><path class="js-fill" d="M0,53.69L145,133.94L246.35,172.35L290,178.22L391.35,182.63L435,182.43L580,183.15L580,218.5L435,218.5L0,218.5Z" style="fill: rgb(139, 196, 59); fill-opacity: 0.25; stroke-width: 0;"/></g></g><g class="errorbars"/><g class="lines"><path class="js-line" d="M0,53.69L145,133.94L246.35,172.35L290,178.22L391.35,182.63L435,182.43L580,183.15L580,218.5L435,218.5L0,218.5" style="vector-effect: none; fill: none; stroke: rgb(255, 102, 146); stroke-opacity: 1; stroke-width: 0px; opacity: 1;"/></g><g class="points"/><g class="text"/></g><g class="trace scatter trace4e9443" style="stroke-miterlimit: 2; opacity: 1;"><g class="fills"/><g class="errorbars"/><g class="lines"><path class="js-line" d="M0,39.12L246.35,169.66L290,183.26L391.35,196.22L435,198.81L580,200.35" style="vector-effect: none; fill: none; stroke: rgb(0, 0, 0); stroke-opacity: 1; stroke-dasharray: 15px, 15px; stroke-width: 2px; opacity: 1;"/></g><g class="points"/><g class="text"/></g><g class="trace scatter trace7b5ff0" style="stroke-miterlimit: 2; opacity: 1;"><g class="fills"><g><path class="js-fill" d="M0,39.12L246.35,169.66L290,183.26L391.35,196.22L435,198.81L580,200.35L580,218.5L0,218.5Z" style="fill: rgb(139, 196, 59); fill-opacity: 0.25; stroke-width: 0;"/></g></g><g class="errorbars"/><g class="lines"><path class="js-line" d="M0,39.12L246.35,169.66L290,183.26L391.35,196.22L435,198.81L580,200.35L580,218.5L0,218.5" style="vector-effect: none; fill: none; stroke: rgb(255, 151, 255); stroke-opacity: 1; stroke-width: 0px; opacity: 1;"/></g><g class="points"/><g class="text"/></g></g></g></g><path class="xlines-above crisp" d="M59,290.5H641M59,59.5H641" style="fill: none; stroke-width: 1px; stroke: rgb(0, 0, 0); stroke-opacity: 1;"/><path class="ylines-above crisp" d="M59.5,60V290M640.5,60V290" style="fill: none; stroke-width: 1px; stroke: rgb(0, 0, 0); stroke-opacity: 1;"/><g class="overlines-above"/><g class="xaxislayer-above"><path class="xtick ticks crisp" d="M0,291v5" transform="translate(60,0)" style="stroke: rgb(0, 0, 0); stroke-opacity: 1; stroke-width: 1px;"/><path class="xtick ticks crisp" d="M0,291v5" transform="translate(103.65,0)" style="stroke: rgb(0, 0, 0); stroke-opacity: 1; stroke-width: 1px;"/><path class="xtick ticks crisp" d="M0,291v5" transform="translate(161.35,0)" style="stroke: rgb(0, 0, 0); stroke-opacity: 1; stroke-width: 1px;"/><path class="xtick ticks crisp" d="M0,291v5" transform="translate(205,0)" style="stroke: rgb(0, 0, 0); stroke-opacity: 1; stroke-width: 1px;"/><path class="xtick ticks crisp" d="M0,291v5" transform="translate(248.65,0)" style="stroke: rgb(0, 0, 0); stroke-opacity: 1; stroke-width: 1px;"/><path class="xtick ticks crisp" d="M0,291v5" transform="translate(306.35,0)" style="stroke: rgb(0, 0, 0); stroke-opacity: 1; stroke-width: 1px;"/><path class="xtick ticks crisp" d="M0,291v5" transform="translate(350,0)" style="stroke: rgb(0, 0, 0); stroke-opacity: 1; stroke-width: 1px;"/><path class="xtick ticks crisp" d="M0,291v5" transform="translate(393.65,0)" style="stroke: rgb(0, 0, 0); stroke-opacity: 1; stroke-width: 1px;"/><path class="xtick ticks crisp" d="M0,291v5" transform="translate(451.35,0)" style="stroke: rgb(0, 0, 0); stroke-opacity: 1; stroke-width: 1px;"/><path class="xtick ticks crisp" d="M0,291v5" transform="translate(495,0)" style="stroke: rgb(0, 0, 0); stroke-opacity: 1; stroke-width: 1px;"/><path class="xtick ticks crisp" d="M0,291v5" transform="translate(538.65,0)" style="stroke: rgb(0, 0, 0); stroke-opacity: 1; stroke-width: 1px;"/><path class="xtick ticks crisp" d="M0,291v5" transform="translate(596.35,0)" style="stroke: rgb(0, 0, 0); stroke-opacity: 1; stroke-width: 1px;"/><path class="xtick ticks crisp" d="M0,291v5" transform="translate(640,0)" style="stroke: rgb(0, 0, 0); stroke-opacity: 1; stroke-width: 1px;"/><g class="xtick"><text text-anchor="middle" x="0" y="310.4" transform="translate(60,0)" style="font-family: 'Open Sans', verdana, arial, sans-serif; font-size: 12px; fill: rgb(0, 0, 0); fill-opacity: 1; white-space: pre; opacity: 1;">1</text></g><g class="xtick"><text text-anchor="middle" x="0" y="307.4" style="font-family: 'Open Sans', verdana, arial, sans-serif; font-size: 9px; fill: rgb(0, 0, 0); fill-opacity: 1; white-space: pre; opacity: 1;" transform="translate(103.65,0)">2</text></g><g class="xtick"><text text-anchor="middle" x="0" y="307.4" style="font-family: 'Open Sans', verdana, arial, sans-serif; font-size: 9px; fill: rgb(0, 0, 0); fill-opacity: 1; white-space: pre; opacity: 1;" transform="translate(161.35,0)">5</text></g><g class="xtick"><text text-anchor="middle" x="0" y="310.4" style="font-family: 'Open Sans', verdana, arial, sans-serif; font-size: 12px; fill: rgb(0, 0, 0); fill-opacity: 1; white-space: pre; opacity: 1;" transform="translate(205,0)">10</text></g><g class="xtick"><text text-anchor="middle" x="0" y="307.4" style="font-family: 'Open Sans', verdana, arial, sans-serif; font-size: 9px; fill: rgb(0, 0, 0); fill-opacity: 1; white-space: pre; opacity: 1;" transform="translate(248.65,0)">2</text></g><g class="xtick"><text text-anchor="middle" x="0" y="307.4" style="font-family: 'Open Sans', verdana, arial, sans-serif; font-size: 9px; fill: rgb(0, 0, 0); fill-opacity: 1; white-space: pre; opacity: 1;" transform="translate(306.35,0)">5</text></g><g class="xtick"><text text-anchor="middle" x="0" y="310.4" style="font-family: 'Open Sans', verdana, arial, sans-serif; font-size: 12px; fill: rgb(0, 0, 0); fill-opacity: 1; white-space: pre; opacity: 1;" transform="translate(350,0)">100</text></g><g class="xtick"><text text-anchor="middle" x="0" y="307.4" style="font-family: 'Open Sans', verdana, arial, sans-serif; font-size: 9px; fill: rgb(0, 0, 0); fill-opacity: 1; white-space: pre; opacity: 1;" transform="translate(393.65,0)">2</text></g><g class="xtick"><text text-anchor="middle" x="0" y="307.4" style="font-family: 'Open Sans', verdana, arial, sans-serif; font-size: 9px; fill: rgb(0, 0, 0); fill-opacity: 1; white-space: pre; opacity: 1;" transform="translate(451.35,0)">5</text></g><g class="xtick"><text text-anchor="middle" x="0" y="310.4" style="font-family: 'Open Sans', verdana, arial, sans-serif; font-size: 12px; fill: rgb(0, 0, 0); fill-opacity: 1; white-space: pre; opacity: 1;" transform="translate(495,0)">1000</text></g><g class="xtick"><text text-anchor="middle" x="0" y="307.4" style="font-family: 'Open Sans', verdana, arial, sans-serif; font-size: 9px; fill: rgb(0, 0, 0); fill-opacity: 1; white-space: pre; opacity: 1;" transform="translate(538.65,0)">2</text></g><g class="xtick"><text text-anchor="middle" x="0" y="307.4" style="font-family: 'Open Sans', verdana, arial, sans-serif; font-size: 9px; fill: rgb(0, 0, 0); fill-opacity: 1; white-space: pre; opacity: 1;" transform="translate(596.35,0)">5</text></g><g class="xtick"><text text-anchor="middle" x="0" y="310.4" style="font-family: 'Open Sans', verdana, arial, sans-serif; font-size: 12px; fill: rgb(0, 0, 0); fill-opacity: 1; white-space: pre; opacity: 1;" transform="translate(640,0)">10k</text></g></g><g class="yaxislayer-above"><path class="ytick ticks crisp" d="M59,0h-5" transform="translate(0,254.05)" style="stroke: rgb(0, 0, 0); stroke-opacity: 1; stroke-width: 1px;"/><path class="ytick ticks crisp" d="M59,0h-5" transform="translate(0,205.15)" style="stroke: rgb(0, 0, 0); stroke-opacity: 1; stroke-width: 1px;"/><path class="ytick ticks crisp" d="M59,0h-5" transform="translate(0,156.25)" style="stroke: rgb(0, 0, 0); stroke-opacity: 1; stroke-width: 1px;"/><path class="ytick ticks crisp" d="M59,0h-5" transform="translate(0,107.35)" style="stroke: rgb(0, 0, 0); stroke-opacity: 1; stroke-width: 1px;"/><g class="ytick"><text text-anchor="end" x="51.6" y="4.199999999999999" transform="translate(0,254.05)" style="font-family: 'Open Sans', verdana, arial, sans-serif; font-size: 12px; fill: rgb(0, 0, 0); fill-opacity: 1; white-space: pre; opacity: 1;">2</text></g><g class="ytick"><text text-anchor="end" x="51.6" y="4.199999999999999" style="font-family: 'Open Sans', verdana, arial, sans-serif; font-size: 12px; fill: rgb(0, 0, 0); fill-opacity: 1; white-space: pre; opacity: 1;" transform="translate(0,205.15)">4</text></g><g class="ytick"><text text-anchor="end" x="51.6" y="4.199999999999999" style="font-family: 'Open Sans', verdana, arial, sans-serif; font-size: 12px; fill: rgb(0, 0, 0); fill-opacity: 1; white-space: pre; opacity: 1;" transform="translate(0,156.25)">6</text></g><g class="ytick"><text text-anchor="end" x="51.6" y="4.199999999999999" style="font-family: 'Open Sans', verdana, arial, sans-serif; font-size: 12px; fill: rgb(0, 0, 0); fill-opacity: 1; white-space: pre; opacity: 1;" transform="translate(0,107.35)">8</text></g></g><g class="overaxes-above"/></g></g><g class="polarlayer"/><g class="smithlayer"/><g class="ternarylayer"/><g class="geolayer"/><g class="funnelarealayer"/><g class="pielayer"/><g class="iciclelayer"/><g class="treemaplayer"/><g class="sunburstlayer"/><g class="glimages"/><defs id="topdefs-e6f109"><g class="clips"/><clipPath id="legende6f109"><rect width="563" height="29" x="0" y="0"/></clipPath></defs><g class="layer-above"><g class="imagelayer"/><g class="shapelayer"/></g><g class="infolayer"><g class="legend" pointer-events="all" transform="translate(77,60)"><rect class="bg" shape-rendering="crispEdges" width="563" height="29" x="0" y="0" style="stroke: rgb(68, 68, 68); stroke-opacity: 1; fill: rgb(0, 0, 0); fill-opacity: 0; stroke-width: 0px;"/><g class="scrollbox" transform="" clip-path="url(#legende6f109)"><g class="groups"><g class="traces" transform="translate(0,14.5)" style="opacity: 1;"><text class="legendtext" text-anchor="start" x="40" y="4.680000000000001" style="font-family: 'Open Sans', verdana, arial, sans-serif; font-size: 12px; fill: rgb(0, 0, 0); fill-opacity: 1; white-space: pre;">Scipy</text><g class="layers" style="opacity: 1;"><g class="legendfill"/><g class="legendlines"><path class="js-line" d="M5,0h30" style="fill: none; stroke: rgb(0, 0, 0); stroke-opacity: 1; stroke-width: 2px;"/></g><g class="legendsymbols"><g class="legendpoints"/></g></g><rect class="legendtoggle" x="0" y="-9.5" width="71.84375" height="19" style="fill: rgb(0, 0, 0); fill-opacity: 0;"/></g><g class="traces" transform="translate(74.34375,14.5)" style="opacity: 1;"><text class="legendtext" text-anchor="start" x="40" y="4.680000000000001" style="font-family: 'Open Sans', verdana, arial, sans-serif; font-size: 12px; fill: rgb(0, 0, 0); fill-opacity: 1; white-space: pre;">InterpN</text><g class="layers" style="opacity: 1;"><g class="legendfill"/><g class="legendlines"><path class="js-line" d="M5,0h30" style="fill: none; stroke: rgb(0, 0, 0); stroke-opacity: 1; stroke-dasharray: 9px, 9px; stroke-width: 2px;"/></g><g class="legendsymbols"><g class="legendpoints"/></g></g><rect class="legendtoggle" x="0" y="-9.5" width="81.859375" height="19" style="fill: rgb(0, 0, 0); fill-opacity: 0;"/></g><g class="traces" transform="translate(158.703125,14.5)" style="opacity: 1;"><text class="legendtext" text-anchor="start" x="40" y="4.680000000000001" style="font-family: 'Open Sans', verdana, arial, sans-serif; font-size: 12px; fill: rgb(0, 0, 0); fill-opacity: 1; white-space: pre;">InterpN MultiBsplineRegular</text><g class="layers" style="opacity: 1;"><g class="legendfill"/><g class="legendlines"><path class="js-line" d="M5,0h30" style="fill: none; stroke: rgb(0, 0, 0); stroke-opacity: 1; stroke-dasharray: 3px, 3px; stroke-width: 2px;"/></g><g class="legendsymbols"><g class="legendpoints"/></g></g><rect class="legendtoggle" x="0" y="-9.5" width="191.90625" height="19" style="fill: rgb(0, 0, 0); fill-opacity: 0;"/></g><g class="traces" transform="translate(353.109375,14.5)" style="opacity: 1;"><text class="legendtext" text-anchor="start" x="40" y="4.680000000000001" style="font-family: 'Open Sans', verdana, arial, sans-serif; font-size: 12px; fill: rgb(0, 0, 0); fill-opacity: 1; white-space: pre;">InterpN MultiBsplineRectilinear</text><g class="layers" style="opacity: 1;"><g class="legendfill"/><g class="legendlines"><path class="js-line" d="M5,0h30" style="fill: none; stroke: rgb(0, 0, 0); stroke-opacity: 1; stroke-dasharray: 9px, 3px, 3px, 3px; stroke-width: 2px;"/></g><g class="legendsymbols"><g class="legendpoints"/></g></g><rect class="legendtoggle" x="0" y="-9.5" width="206.578125" height="19" style="fill: rgb(0, 0, 0); fill-opacity: 0;"/></g></g></g><rect class="scrollbar" rx="20" ry="3" width="0" height="0" x="0" y="0" style="fill: rgb(128, 139, 164); fill-opacity: 1;"/></g><g class="g-gtitle"><text class="gtitle" x="35" y="12" text-anchor="start" dy="0.7em" style="opacity: 1; font-family: 'Open Sans', verdana, arial, sans-serif; font-size: 17px; fill: rgb(0, 0, 0); fill-opacity: 1; white-space: pre;"><tspan class="line" dy="0em" x="35" y="12">Interpolation on 20x20x20 Grid</tspan><tspan class="line" dy="1.3em" x="35" y="12">Without Preallocated Output, Cubic</tspan></text></g><g class="g-xtitle"><text class="xtitle" x="350" y="337.70625" text-anchor="middle" style="opacity: 1; font-family: 'Open Sans', verdana, arial, sans-serif; font-size: 14px; fill: rgb(0, 0, 0); fill-opacity: 1; white-space: pre;">Number of Observation Points</text></g><g class="g-ytitle"><text class="ytitle" transform="rotate(-90,25.521875,175)" x="25.521875" y="175" text-anchor="middle" style="opacity: 1; font-family: 'Open Sans', verdana, arial, sans-serif; font-size: 14px; fill: rgb(0, 0, 0); fill-opacity: 1; white-space: pre;">Normalized Throughput</text></g></g></svg>