<svg class="main-svg" xmlns="http://www.w3.org/2000/svg" xmlns:xlink="http://www.w3.org/1999/xlink" width="700" height="430" style="" viewBox="0 0 700 430"><rect x="0" y="0" width="700" height="430" style="fill: rgb(0, 0, 0); fill-opacity: 0;"/><defs id="defs-2f514f"><g class="clips"><clipPath id="clip2f514fxyplot" class="plotclip"><rect width="600" height="280"/></clipPath><clipPath class="axesclip" id="clip2f514fx"><rect x="60" y="0" width="600" height="430"/></clipPath><clipPath class="axesclip" id="clip2f514fy"><rect x="0" y="70" width="700" height="280"/></clipPath><clipPath class="axesclip" id="clip2f514fxy"><rect x="60" y="70" width="600" height="280"/></clipPath></g><g class="gradients"/><g class="patterns"/></defs><g class="bglayer"><rect class="bg" x="60" y="70" width="600" height="280" style="fill: rgb(0, 0, 0); fill-opacity: 0; stroke-width: 0;"/></g><g class="layer-below"><g class="imagelayer"/><g class="shapelayer"/></g><g class="cartesianlayer"><g class="subplot xy"><g class="layer-subplot"><g class="shapelayer"/><g class="imagelayer"/></g><g class="minor-gridlayer"><g class="x"/><g class="y"/></g><g class="gridlayer"><g class="x"/><g class="y"/></g><g class="zerolinelayer"/><g class="layer-between"><g class="shapelayer"/><g class="imagelayer"/></g><path class="xlines-below"/><path class="ylines-below"/><g class="overlines-below"/><g class="xaxislayer-below"/><g class="yaxislayer-below"/><g class="overaxes-below"/><g class="overplot"><g class="xy" transform="translate(60,70)" clip-path="url(#clip2f514fxyplot)"><g class="scatterlayer mlayer"><g class="trace scatter trace3299be" style="stroke-miterlimit: 2; opacity: 1;"><g class="fills"><g><path class="js-fill" d="M0,280L360,128.05L600,58.78L600,280L360,280L0,280Z" style="fill: rgb(139, 196, 59); fill-opacity: 0.25; stroke-width: 0;"/></g></g><g class="errorbars"/><g class="lines"><path class="js-line" d="M0,280L360,128.05L600,58.78L600,280L360,280L0,280" style="vector-effect: none; fill: none; stroke: rgb(99, 110, 250); stroke-opacity: 1; stroke-width: 0px; opacity: 1;"/></g><g class="points"/><g class="text"/></g><g class="trace scatter trace69e566" style="stroke-miterlimit: 2; opacity: 1;"><g class="fills"><g><path class="js-fill" d="M0,280L120,226.31L360,120.92L600,15.37L600,280L0,280Z" style="fill: rgb(139, 196, 59); fill-opacity: 0.25; stroke-width: 0;"/></g></g><g class="errorbars"/><g class="lines"><path class="js-line" d="M0,280L120,226.31L360,120.92L600,15.37L600,280L0,280" style="vector-effect: none; fill: none; stroke: rgb(239, 85, 59); stroke-opacity: 1; stroke-width: 0px; opacity: 1;"/></g><g class="points"/><g class="text"/></g><g class="trace scatter traceb7b967" style="stroke-miterlimit: 2; opacity: 1;"><g class="fills"><g><path class="js-fill" d="M0,280L120,228.69L360,127.4L600,68.28L600,280L0,280Z" style="fill: rgb(139, 196, 59); fill-opacity: 0.25; stroke-width: 0;"/></g></g><g class="errorbars"/><g class="lines"><path class="js-line" d="M0,280L120,228.69L360,127.4L600,68.28L600,280L0,280" style="vector-effect: none; fill: none; stroke: rgb(0, 204, 150); stroke-opacity: 1; stroke-width: 0px; opacity: 1;"/></g><g class="points"/><g class="text"/></g><g class="trace scatter trace9054ff" style="stroke-miterlimit: 2; opacity: 1;"><g class="fills"><g><path class="js-fill" d="M0,280L120,223.64L360,112.06L600,16.05L600,280L0,280Z" style="fill: rgb(139, 196, 59); fill-opacity: 0.25; stroke-width: 0;"/></g></g><g class="errorbars"/><g class="lines"><path class="js-line" d="M0,280L120,223.64L360,112.06L600,16.05L600,280L0,280" style="vector-effect: none; fill: none; stroke: rgb(171, 99, 250); stroke-opacity: 1; stroke-width: 0px; opacity: 1;"/></g><g class="points"/><g class="text"/></g><g class="trace scatter trace8d9a5d" style="stroke-miterlimit: 2; opacity: 1;"><g class="fills"><g><path class="js-fill" d="M0,280L360,112.35L600,-1.14L600,280L360,280L0,280Z" style="fill: rgb(139, 196, 59); fill-opacity: 0.25; stroke-width: 0;"/></g></g><g class="errorbars"/><g class="lines"><path class="js-line" d="M0,280L360,112.35L600,-1.14L600,280L360,280L0,280" style="vector-effect: none; fill: none; stroke: rgb(255, 161, 90); stroke-opacity: 1; stroke-width: 0px; opacity: 1;"/></g><g class="points"/><g class="text"/></g><g class="trace scatter trace7a2163" style="stroke-miterlimit: 2; opacity: 1;"><g class="fills"><g><path class="js-fill" d="M0,280L120,223.15L360,107.86L600,6.38L600,280L0,280Z" style="fill: rgb(139, 196, 59); fill-opacity: 0.25; stroke-width: 0;"/></g></g><g class="errorbars"/><g class="lines"><path class="js-line" d="M0,280L120,223.15L360,107.86L600,6.38L600,280L0,280" style="vector-effect: none; fill: none; stroke: rgb(25, 211, 243); stroke-opacity: 1; stroke-width: 0px; opacity: 1;"/></g><g class="points"/><g class="text"/></g><g class="trace scatter trace4324f9" style="stroke-miterlimit: 2; opacity: 1;"><g class="fills"/><g class="errorbars"/><g class="lines"><path class="js-line" d="M0,280L360,128.05L600,58.78" style="vector-effect: none; fill: none; stroke: rgb(0, 0, 0); stroke-opacity: 1; stroke-width: 2px; opacity: 1;"/></g><g class="points"><path class="point" transform="translate(0,280)" d="M3.5,0A3.5,3.5 0 1,1 0,-3.5A3.5,3.5 0 0,1 3.5,0Z" style="opacity: 1; stroke-width: 0px; fill: rgb(0, 0, 0); fill-opacity: 1;"/><path class="point" transform="translate(120,229.1)" d="M3.5,0A3.5,3.5 0 1,1 0,-3.5A3.5,3.5 0 0,1 3.5,0Z" style="opacity: 1; stroke-width: 0px; fill: rgb(0, 0, 0); fill-opacity: 1;"/><path class="point" transform="translate(360,128.05)" d="M3.5,0A3.5,3.5 0 1,1 0,-3.5A3.5,3.5 0 0,1 3.5,0Z" style="opacity: 1; stroke-width: 0px; fill: rgb(0, 0, 0); fill-opacity: 1;"/><path class="point" transform="translate(600,58.78)" d="M3.5,0A3.5,3.5 0 1,1 0,-3.5A3.5,3.5 0 0,1 3.5,0Z" style="opacity: 1; stroke-width: 0px; fill: rgb(0, 0, 0); fill-opacity: 1;"/></g><g class="text"/></g><g class="trace scatter trace4f43bd" style="stroke-miterlimit: 2; opacity: 1;"><g class="fills"/><g class="errorbars"/><g class="lines"><path class="js-line" d="M0,280L120,226.31L360,120.92L600,15.37" style="vector-effect: none; fill: none; stroke: rgb(0, 0, 0); stroke-opacity: 1; stroke-dasharray: 9px, 9px; stroke-width: 2px; opacity: 1;"/></g><g class="points"><path class="point" transform="translate(0,280)" d="M3.5,0A3.5,3.5 0 1,1 0,-3.5A3.5,3.5 0 0,1 3.5,0Z" style="opacity: 1; stroke-width: 0px; fill: rgb(0, 0, 0); fill-opacity: 1;"/><path class="point" transform="translate(120,226.31)" d="M3.5,0A3.5,3.5 0 1,1 0,-3.5A3.5,3.5 0 0,1 3.5,0Z" style="opacity: 1; stroke-width: 0px; fill: rgb(0, 0, 0); fill-opacity: 1;"/><path class="point" transform="translate(360,120.92)" d="M3.5,0A3.5,3.5 0 1,1 0,-3.5A3.5,3.5 0 0,1 3.5,0Z" style="opacity: 1; stroke-width: 0px; fill: rgb(0, 0, 0); fill-opacity: 1;"/><path class="point" transform="translate(600,15.37)" d="M3.5,0A3.5,3.5 0 1,1 0,-3.5A3.5,3.5 0 0,1 3.5,0Z" style="opacity: 1; stroke-width: 0px; fill: rgb(0, 0, 0); fill-opacity: 1;"/></g><g class="text"/></g><g class="trace scatter tracedd648b" style="stroke-miterlimit: 2; opacity: 1;"><g class="fills"/><g class="errorbars"/><g class="lines"><path class="js-line" d="M0,280L120,228.69L360,127.4L600,68.28" style="vector-effect: none; fill: none; stroke: rgb(0, 0, 0); stroke-opacity: 1; stroke-dasharray: 3px, 3px; stroke-width: 2px; opacity: 1;"/></g><g class="points"><path class="point" transform="translate(0,280)" d="M3.5,0A3.5,3.5 0 1,1 0,-3.5A3.5,3.5 0 0,1 3.5,0Z" style="opacity: 1; stroke-width: 0px; fill: rgb(0, 0, 0); fill-opacity: 1;"/><path class="point" transform="translate(120,228.69)" d="M3.5,0A3.5,3.5 0 1,1 0,-3.5A3.5,3.5 0 0,1 3.5,0Z" style="opacity: 1; stroke-width: 0px; fill: rgb(0, 0, 0); fill-opacity: 1;"/><path class="point" transform="translate(360,127.4)" d="M3.5,0A3.5,3.5 0 1,1 0,-3.5A3.5,3.5 0 0,1 3.5,0Z" style="opacity: 1; stroke-width: 0px; fill: rgb(0, 0, 0); fill-opacity: 1;"/><path class="point" transform="translate(600,68.28)" d="M3.5,0A3.5,3.5 0 1,1 0,-3.5A3.5,3.5 0 0,1 3.5,0Z" style="opacity: 1; stroke-width: 0px; fill: rgb(0, 0, 0); fill-opacity: 1;"/></g><g class="text"/></g><g class="trace scatter trace14cd9f" style="stroke-miterlimit: 2; opacity: 1;"><g class="fills"/><g class="errorbars"/><g class="lines"><path class="js-line" d="M0,280L120,223.64L360,112.06L600,16.05" style="vector-effect: none; fill: none; stroke: rgb(0, 0, 0); stroke-opacity: 1; stroke-dasharray: 9px, 3px, 3px, 3px; stroke-width: 2px; opacity: 1;"/></g><g class="points"><path class="point" transform="translate(0,280)" d="M3.5,0A3.5,3.5 0 1,1 0,-3.5A3.5,3.5 0 0,1 3.5,0Z" style="opacity: 1; stroke-width: 0px; fill: rgb(0, 0, 0); fill-opacity: 1;"/><path class="point" transform="translate(120,223.64)" d="M3.5,0A3.5,3.5 0 1,1 0,-3.5A3.5,3.5 0 0,1 3.5,0Z" style="opacity: 1; stroke-width: 0px; fill: rgb(0, 0, 0); fill-opacity: 1;"/><path class="point" transform="translate(360,112.06)" d="M3.5,0A3.5,3.5 0 1,1 0,-3.5A3.5,3.5 0 0,1 3.5,0Z" style="opacity: 1; stroke-width: 0px; fill: rgb(0, 0, 0); fill-opacity: 1;"/><path class="point" transform="translate(600,16.05)" d="M3.5,0A3.5,3.5 0 1,1 0,-3.5A3.5,3.5 0 0,1 3.5,0Z" style="opacity: 1; stroke-width: 0px; fill: rgb(0, 0, 0); fill-opacity: 1;"/></g><g class="text"/></g><g class="trace scatter trace5864ca" style="stroke-miterlimit: 2; opacity: 1;"><g class="fills"/><g class="errorbars"/><g class="lines"><path class="js-line" d="M0,280L360,112.35L600,-1.14" style="vector-effect: none; fill: none; stroke: rgb(0, 0, 0); stroke-opacity: 1; stroke-dasharray: 15px, 15px; stroke-width: 2px; opacity: 1;"/></g><g class="points"><path class="point" transform="translate(0,280)" d="M3.5,0A3.5,3.5 0 1,1 0,-3.5A3.5,3.5 0 0,1 3.5,0Z" style="opacity: 1; stroke-width: 0px; fill: rgb(0, 0, 0); fill-opacity: 1;"/><path class="point" transform="translate(120,223.97)" d="M3.5,0A3.5,3.5 0 1,1 0,-3.5A3.5,3.5 0 0,1 3.5,0Z" style="opacity: 1; stroke-width: 0px; fill: rgb(0, 0, 0); fill-opacity: 1;"/><path class="point" transform="translate(360,112.35)" d="M3.5,0A3.5,3.5 0 1,1 0,-3.5A3.5,3.5 0 0,1 3.5,0Z" style="opacity: 1; stroke-width: 0px; fill: rgb(0, 0, 0); fill-opacity: 1;"/><path class="point" transform="translate(600,-1.14)" d="M3.5,0A3.5,3.5 0 1,1 0,-3.5A3.5,3.5 0 0,1 3.5,0Z" style="opacity: 1; stroke-width: 0px; fill: rgb(0, 0, 0); fill-opacity: 1;"/></g><g class="text"/></g><g class="trace scatter trace796466" style="stroke-miterlimit: 2; opacity: 1;"><g class="fills"/><g class="errorbars"/><g class="lines"><path class="js-line" d="M0,280L120,223.15L360,107.86L600,6.38" style="vector-effect: none; fill: none; stroke: rgb(0, 0, 0); stroke-opacity: 1; stroke-dasharray: 15px, 6px, 3px, 6px; stroke-width: 2px; opacity: 1;"/></g><g class="points"><path class="point" transform="translate(0,280)" d="M3.5,0A3.5,3.5 0 1,1 0,-3.5A3.5,3.5 0 0,1 3.5,0Z" style="opacity: 1; stroke-width: 0px; fill: rgb(0, 0, 0); fill-opacity: 1;"/><path class="point" transform="translate(120,223.15)" d="M3.5,0A3.5,3.5 0 1,1 0,-3.5A3.5,3.5 0 0,1 3.5,0Z" style="opacity: 1; stroke-width: 0px; fill: rgb(0, 0, 0); fill-opacity: 1;"/><path class="point" transform="translate(360,107.86)" d="M3.5,0A3.5,3.5 0 1,1 0,-3.5A3.5,3.5 0 0,1 3.5,0Z" style="opacity: 1; stroke-width: 0px; fill: rgb(0, 0, 0); fill-opacity: 1;"/><path class="point" transform="translate(600,6.38)" d="M3.5,0A3.5,3.5 0 1,1 0,-3.5A3.5,3.5 0 0,1 3.5,0Z" style="opacity: 1; stroke-width: 0px; fill: rgb(0, 0, 0); fill-opacity: 1;"/></g><g class="text"/></g></g></g></g><path class="xlines-above crisp" d="M59,350.5H661M59,69.5H661" style="fill: none; stroke-width: 1px; stroke: rgb(0, 0, 0); stroke-opacity: 1;"/><path class="ylines-above crisp" d="M59.5,70V350M660.5,70V350" style="fill: none; stroke-width: 1px; stroke: rgb(0, 0, 0); stroke-opacity: 1;"/><g class="overlines-above"/><g class="xaxislayer-above"><path class="xtick ticks crisp" d="M0,351v5" transform="translate(60,0)" style="stroke: rgb(0, 0, 0); stroke-opacity: 1; stroke-width: 1px;"/><path class="xtick ticks crisp" d="M0,351v5" transform="translate(180,0)" style="stroke: rgb(0, 0, 0); stroke-opacity: 1; stroke-width: 1px;"/><path class="xtick ticks crisp" d="M0,351v5" transform="translate(300,0)" style="stroke: rgb(0, 0, 0); stroke-opacity: 1; stroke-width: 1px;"/><path class="xtick ticks crisp" d="M0,351v5" transform="translate(420,0)" style="stroke: rgb(0, 0, 0); stroke-opacity: 1; stroke-width: 1px;"/><path class="xtick ticks crisp" d="M0,351v5" transform="translate(540,0)" style="stroke: rgb(0, 0, 0); stroke-opacity: 1; stroke-width: 1px;"/><path class="xtick ticks crisp" d="M0,351v5" transform="translate(660,0)" style="stroke: rgb(0, 0, 0); stroke-opacity: 1; stroke-width: 1px;"/><g class="xtick"><text text-anchor="middle" x="0" y="370.4" transform="translate(60,0)" style="font-family: 'Open Sans', verdana, arial, sans-serif; font-size: 12px; fill: rgb(0, 0, 0); fill-opacity: 1; white-space: pre; opacity: 1;">1</text></g><g class="xtick"><text text-anchor="middle" x="0" y="370.4" style="font-family: 'Open Sans', verdana, arial, sans-serif; font-size: 12px; fill: rgb(0, 0, 0); fill-opacity: 1; white-space: pre; opacity: 1;" transform="translate(180,0)">2</text></g><g class="xtick"><text text-anchor="middle" x="0" y="370.4" style="font-family: 'Open Sans', verdana, arial, sans-serif; font-size: 12px; fill: rgb(0, 0, 0); fill-opacity: 1; white-space: pre; opacity: 1;" transform="translate(300,0)">3</text></g><g class="xtick"><text text-anchor="middle" x="0" y="370.4" style="font-family: 'Open Sans', verdana, arial, sans-serif; font-size: 12px; fill: rgb(0, 0, 0); fill-opacity: 1; white-space: pre; opacity: 1;" transform="translate(420,0)">4</text></g><g class="xtick"><text text-anchor="middle" x="0" y="370.4" style="font-family: 'Open Sans', verdana, arial, sans-serif; font-size: 12px; fill: rgb(0, 0, 0); fill-opacity: 1; white-space: pre; opacity: 1;" transform="translate(540,0)">5</text></g><g class="xtick"><text text-anchor="middle" x="0" y="370.4" style="font-family: 'Open Sans', verdana, arial, sans-serif; font-size: 12px; fill: rgb(0, 0, 0); fill-opacity: 1; white-space: pre; opacity: 1;" transform="translate(660,0)">6</text></g></g><g class="yaxislayer-above"><path class="ytick ticks crisp" d="M59,0h-5" transform="translate(0,350)" style="stroke: rgb(0, 0, 0); stroke-opacity: 1; stroke-width: 1px;"/><path class="ytick ticks crisp" d="M59,0h-5" transform="translate(0,294)" style="stroke: rgb(0, 0, 0); stroke-opacity: 1; stroke-width: 1px;"/><path class="ytick ticks crisp" d="M59,0h-5" transform="translate(0,238)" style="stroke: rgb(0, 0, 0); stroke-opacity: 1; stroke-width: 1px;"/><path class="ytick ticks crisp" d="M59,0h-5" transform="translate(0,182)" style="stroke: rgb(0, 0, 0); stroke-opacity: 1; stroke-width: 1px;"/><path class="ytick ticks crisp" d="M59,0h-5" transform="translate(0,126)" style="stroke: rgb(0, 0, 0); stroke-opacity: 1; stroke-width: 1px;"/><path class="ytick ticks crisp" d="M59,0h-5" transform="translate(0,70)" style="stroke: rgb(0, 0, 0); stroke-opacity: 1; stroke-width: 1px;"/><g class="ytick"><text text-anchor="end" x="51.6" y="4.199999999999999" transform="translate(0,350)" style="font-family: 'Open Sans', verdana, arial, sans-serif; font-size: 12px; fill: rgb(0, 0, 0); fill-opacity: 1; white-space: pre; opacity: 1;">1</text></g><g class="ytick"><text text-anchor="end" x="51.6" y="4.199999999999999" style="font-family: 'Open Sans', verdana, arial, sans-serif; font-size: 12px; fill: rgb(0, 0, 0); fill-opacity: 1; white-space: pre; opacity: 1;" transform="translate(0,294)">2</text></g><g class="ytick"><text text-anchor="end" x="51.6" y="4.199999999999999" style="font-family: 'Open Sans', verdana, arial, sans-serif; font-size: 12px; fill: rgb(0, 0, 0); fill-opacity: 1; white-space: pre; opacity: 1;" transform="translate(0,238)">3</text></g><g class="ytick"><text text-anchor="end" x="51.6" y="4.199999999999999" style="font-family: 'Open Sans', verdana, arial, sans-serif; font-size: 12px; fill: rgb(0, 0, 0); fill-opacity: 1; white-space: pre; opacity: 1;" transform="translate(0,182)">4</text></g><g class="ytick"><text text-anchor="end" x="51.6" y="4.199999999999999" style="font-family: 'Open Sans', verdana, arial, sans-serif; font-size: 12px; fill: rgb(0, 0, 0); fill-opacity: 1; white-space: pre; opacity: 1;" transform="translate(0,126)">5</text></g><g class="ytick"><text text-anchor="end" x="51.6" y="4.199999999999999" style="font-family: 'Open Sans', verdana, arial, sans-serif; font-size: 12px; fill: rgb(0, 0, 0); fill-opacity: 1; white-space: pre; opacity: 1;" transform="translate(0,70)">6</text></g></g><g class="overaxes-above"/></g></g><g class="polarlayer"/><g class="smithlayer"/><g class="ternarylayer"/><g class="geolayer"/><g class="funnelarealayer"/><g class="pielayer"/><g class="iciclelayer"/><g class="treemaplayer"/><g class="sunburstlayer"/><g class="glimages"/><defs id="topdefs-2f514f"><g class="clips"/></defs><g class="layer-above"><g class="imagelayer"/><g class="shapelayer"><g class="shape-group" data-index="0" clip-path="url(#clip2f514fy)"><path data-index="0" fill-rule="evenodd" d="M60,350L660,350" style="opacity: 1; stroke: rgb(0, 0, 0); stroke-opacity: 1; fill: rgb(0, 0, 0); fill-opacity: 0; stroke-dasharray: 3px, 3px; stroke-width: 1px;"/></g></g></g><g class="infolayer"><g class="g-gtitle"><text class="gtitle" x="35" y="8.600000000000023" text-anchor="start" dy="0.7em" style="opacity: 1; font-family: 'Open Sans', verdana, arial, sans-serif; font-size: 17px; fill: rgb(0, 0, 0); fill-opacity: 1; white-space: pre;">InterpN Thread Speedup (10000000 Observation Points)</text></g><g class="g-xtitle"><text class="xtitle" x="360" y="397.70625" text-anchor="middle" style="opacity: 1; font-family: 'Open Sans', verdana, arial, sans-serif; font-size: 14px; fill: rgb(0, 0, 0); fill-opacity: 1; white-space: pre;">Threads</text></g><g class="g-ytitle"><text class="ytitle" transform="rotate(-90,25.521875,210)" x="25.521875" y="210" text-anchor="middle" style="opacity: 1; font-family: 'Open Sans', verdana, arial, sans-serif; font-size: 14px; fill: rgb(0, 0, 0); fill-opacity: 1; white-space: pre;">Speedup vs. 1 Thread</text></g></g></svg>